# xmcd
#
# Track frame offsets:
#	150
#	13967
#	28430
#	42237
#	58520
#	70907
#	87550
#	108347
#	118890
#	131102
#	147090
#	162310
#	178502
#	192535
#	214150
#	229795
#	247910
#	260870
#
# Disc length: 3695 seconds
#
# Revision: 2
# Processed by: cddbd v1.5.1PL0 Copyright (c) Steve Scherf et al.
# Submitted via: MusicWizard 7.0.2
#
DISCID=170e6d12
DTITLE=Various Artist - I Love Country - Country Men
DYEAR=1988
DGENRE=Country
TTITLE0=The Highwaymen - The Highwayman
TTITLE1=The Highwaymen - The Last Cowboy Song
TTITLE2=Johnny Cash and Willie Nelson - Even Cowgirls Get The Blues
TTITLE3=Merle Haggard and Willie Nelson - Seashores Of Old Mexico
TTITLE4=Moe Bandy and Joe Stampley - Honky Tonk Queen
TTITLE5=David Allan Coe and Bill Anderson - Get A Little Dirt On Your Hands
TTITLE6=The Highwaymen - Desperados Waiting For A Train
TTITLE7=Moe Bandy and Joe Stampley - Hey Joe
TTITLE8=Ray Charles and B.J. Thomas - Rock'n'Roll Shoes
TTITLE9=Ricky Skaggs - New Star Shining
TTITLE10=Merle Haggard and George Jones - Making Believe
TTITLE11=Merle Haggard and George Jones - Silver Eagle
TTITLE12=Willie Nelson and Roger Miller - Old Friends
TTITLE13=Merle Haggard - Pancho And Lefty
TTITLE14=Willie Nelson and Waylon Jennings - Homeward Bound
TTITLE15=Willie Nelson - A Whiter Shade Of Pale
TTITLE16=Earl Scruggs and Tom T. Hall - Song Of The South
TTITLE17=George Jones and Elvis Costello - Stranger In The House
EXTD=(c)1988 CBS France\nupc 5099746113124\nCBS 46113
EXTT0=Waylon Jennings/Willie Nelson/Johnny Cash/Kris Kristofferson
EXTT1=Waylon Jennings/Willie Nelson/Johnny Cash/Kris Kristofferson
EXTT2=Waylon Jennings/Johnny Cash
EXTT3=Merle Haggard/Willie Nelson
EXTT4=Moe Bandy/Joe Sampley
EXTT5=D. Allan Coe/B. Anderson
EXTT6=Waylon Jennings/Willie Nelson/Johnny Cash/Kris Kristofferson
EXTT7=Moe Bandy/J. Stampley
EXTT8=Ray Charles/B.J. Thomas
EXTT9=Ricky Skaggs
EXTT10=Merle Haggard/George Jones
EXTT11=Merle Haggard/George Jones
EXTT12=Willie Nelson/R. Miller
EXTT13=Merle Haggard
EXTT14=Waylon Jennings/Willie Nelson
EXTT15=Willie Nelson
EXTT16=E. Scruggs and Tom T. Hall
EXTT17=George Jones/E. Costello
PLAYORDER=
